<svg width="79" height="100" viewBox="0 0 79 100" fill="none" xmlns="http://www.w3.org/2000/svg">
<path d="M39.3939 0C22.6575 0 9.09088 13.5667 9.09088 30.303V60.6061H21.2121V30.303C21.2121 20.2636 29.3515 12.1212 39.3939 12.1212C49.4363 12.1212 57.5757 20.2636 57.5757 30.303V60.6061H69.6969V30.303C69.6969 13.5667 56.1303 0 39.3939 0Z" fill="#D1D1DB"/>
<path d="M78.7879 87.8788C78.7879 94.5727 73.3606 100 66.6667 100H12.1212C5.42727 100 0 94.5727 0 87.8788V51.5151C0 44.8212 5.42727 39.3939 12.1212 39.3939H66.6667C73.3606 39.3939 78.7879 44.8212 78.7879 51.5151V87.8788Z" fill="#F2F2F7"/>
</svg>
