<svg width="26" height="30" viewBox="0 0 26 30" fill="none" xmlns="http://www.w3.org/2000/svg">
<path fill-rule="evenodd" clip-rule="evenodd" d="M17.375 0.833237C22.0694 0.833237 25.875 4.63882 25.875 9.33324C25.875 13.921 22.2404 17.6598 17.6937 17.8274L17.375 17.8332H10.2917V20.6666H15.9583C16.7407 20.6666 17.375 21.3008 17.375 22.0832C17.375 22.8656 16.7407 23.4999 15.9583 23.4999H10.2917V27.7499C10.2917 28.5323 9.6574 29.1666 8.875 29.1666C8.0926 29.1666 7.45833 28.5323 7.45833 27.7499V23.4999H1.79167C1.00926 23.4999 0.375 22.8656 0.375 22.0832C0.375 21.3008 1.00926 20.6666 1.79167 20.6666H7.45833V17.8332H1.79167C1.00926 17.8332 0.375 17.199 0.375 16.4166C0.375 15.6901 0.92189 15.0913 1.62645 15.0094L1.79167 14.9999H7.45833V2.2499C7.45833 1.4675 8.0926 0.833237 8.875 0.833237H17.375ZM17.3751 3.66647H10.2917V14.9998H17.3751C20.5047 14.9998 23.0417 12.4628 23.0417 9.33314C23.0417 6.29836 20.6561 3.82078 17.6579 3.67341L17.3751 3.66647Z" fill="black"/>
</svg>
