<svg width="27" height="30" viewBox="0 0 27 30" fill="none" xmlns="http://www.w3.org/2000/svg">
<path fill-rule="evenodd" clip-rule="evenodd" d="M14.8334 0.833328C15.2091 0.833328 15.5695 0.982584 15.8351 1.24826L22.9185 8.33159C23.1842 8.59727 23.3334 8.95761 23.3334 9.33333V10.75C23.3334 11.5324 22.6991 12.1667 21.9167 12.1667H13.4167C12.6902 12.1667 12.0914 11.6198 12.0096 10.9152L12.0001 10.75L11.9987 3.66666H4.91675C4.13434 3.66666 3.50008 4.30093 3.50008 5.08333V24.9167C3.50008 25.6991 4.13434 26.3333 4.91675 26.3333H7.75008C8.53248 26.3333 9.16675 26.9676 9.16675 27.75C9.16675 28.5324 8.53248 29.1667 7.75008 29.1667H4.91675C2.56954 29.1667 0.666748 27.2639 0.666748 24.9167V5.08333C0.666748 2.73612 2.56954 0.833328 4.91675 0.833328H14.8334ZM19.4983 15.4149C20.009 14.9042 20.8126 14.865 21.3684 15.2971L21.5018 15.4149L25.7518 19.6649C26.2625 20.1756 26.3018 20.9792 25.8697 21.5349L25.7518 21.6684L18.6685 28.7517C18.4471 28.9731 18.16 29.1137 17.853 29.1544L17.6667 29.1667H13.4167C12.6902 29.1667 12.0914 28.6198 12.0096 27.9152L12.0001 27.75V23.5C12.0001 23.1869 12.1037 22.8845 12.292 22.6386L12.415 22.4983L19.4983 15.4149ZM20.5001 18.4201L14.8334 24.0868V26.3333H17.0799L22.7466 20.6667L20.5001 18.4201ZM14.832 4.25316L14.8334 9.33333H19.9136L14.832 4.25316Z" fill="white"/>
</svg>
