<svg width="30" height="24" viewBox="0 0 30 24" fill="none" xmlns="http://www.w3.org/2000/svg">
<path fill-rule="evenodd" clip-rule="evenodd" d="M7.91668 14.8333H9.33334C11.6506 14.8333 13.708 15.9461 15.0003 17.6664C16.224 16.0366 18.1349 14.9521 20.303 14.8425L20.6667 14.8333H22.0833C25.9954 14.8333 29.1667 18.0046 29.1667 21.9167C29.1667 22.6991 28.5324 23.3333 27.75 23.3333C27.0235 23.3333 26.4247 22.7864 26.3429 22.0819L26.3261 21.6669C26.2017 19.5186 24.4814 17.7984 22.3331 17.6739L22.0833 17.6667H20.6667C18.3195 17.6667 16.4167 19.5695 16.4167 21.9167C16.4167 22.6432 15.8698 23.242 15.1652 23.3238L15 23.3333C14.2735 23.3333 13.6747 22.7864 13.5929 22.0819L13.5761 21.6669C13.4517 19.5186 11.7314 17.7984 9.58306 17.6739L9.33334 17.6667H7.91668C5.56947 17.6667 3.66668 19.5695 3.66668 21.9167C3.66668 22.6991 3.03241 23.3333 2.25001 23.3333C1.46761 23.3333 0.833344 22.6991 0.833344 21.9167C0.833344 18.1076 3.83994 15.0008 7.60942 14.8399L7.91668 14.8333ZM7.91668 0.666664C11.0463 0.666664 13.5833 3.20372 13.5833 6.33333C13.5833 9.46294 11.0463 12 7.91668 12C4.78706 12 2.25001 9.46294 2.25001 6.33333C2.25001 3.20372 4.78706 0.666664 7.91668 0.666664ZM22.0833 0.666664C25.213 0.666664 27.75 3.20372 27.75 6.33333C27.75 9.46294 25.213 12 22.0833 12C18.9537 12 16.4167 9.46294 16.4167 6.33333C16.4167 3.20372 18.9537 0.666664 22.0833 0.666664ZM7.91668 3.5C6.35187 3.5 5.08334 4.76852 5.08334 6.33333C5.08334 7.89814 6.35187 9.16666 7.91668 9.16666C9.48148 9.16666 10.75 7.89814 10.75 6.33333C10.75 4.76852 9.48148 3.5 7.91668 3.5ZM22.0833 3.5C20.5185 3.5 19.25 4.76852 19.25 6.33333C19.25 7.89814 20.5185 9.16666 22.0833 9.16666C23.6482 9.16666 24.9167 7.89814 24.9167 6.33333C24.9167 4.76852 23.6482 3.5 22.0833 3.5Z" fill="black"/>
</svg>
