<svg width="30" height="24" viewBox="0 0 30 24" fill="none" xmlns="http://www.w3.org/2000/svg">
<path fill-rule="evenodd" clip-rule="evenodd" d="M24.9163 0.666618C27.2636 0.666618 29.1663 2.56941 29.1663 4.91662V7.74995C29.1663 8.53235 28.5321 9.16662 27.7497 9.16662C26.1849 9.16662 24.9163 10.4351 24.9163 12C24.9163 13.4936 26.0722 14.7174 27.5382 14.8255L27.9149 14.8428C28.6195 14.9247 29.1663 15.5234 29.1663 16.25V19.0833C29.1663 21.4305 27.2636 23.3333 24.9163 23.3333H5.08301C2.7358 23.3333 0.833008 21.4305 0.833008 19.0833V16.25C0.833008 15.5234 1.3799 14.9247 2.08446 14.8428L2.46113 14.8255C3.92718 14.7174 5.08301 13.4936 5.08301 12C5.08301 10.4351 3.81448 9.16662 2.24967 9.16662C1.46727 9.16662 0.833008 8.53235 0.833008 7.74995V4.91662C0.833008 2.56941 2.7358 0.666618 5.08301 0.666618H24.9163ZM16.4158 3.5H5.08247C4.30006 3.5 3.6658 4.13427 3.6658 4.91667V6.51186C6.10987 7.14092 7.9158 9.35956 7.9158 12C7.9158 14.6404 6.10987 16.8591 3.6658 17.4881V19.0833C3.6658 19.8657 4.30006 20.5 5.08247 20.5H16.4158V19.0833C16.4158 18.3009 17.0501 17.6667 17.8325 17.6667C18.6149 17.6667 19.2491 18.3009 19.2491 19.0833V20.5H24.9158C25.6982 20.5 26.3325 19.8657 26.3325 19.0833V17.4881C23.8884 16.8591 22.0825 14.6404 22.0825 12C22.0825 9.45736 23.7571 7.30584 26.0636 6.58824L26.3325 6.51186V4.91667C26.3325 4.13427 25.6982 3.5 24.9158 3.5H19.2491V4.91667C19.2491 5.69907 18.6149 6.33333 17.8325 6.33333C17.0501 6.33333 16.4158 5.69907 16.4158 4.91667V3.5ZM17.8325 9.16662C18.6149 9.16662 19.2491 9.80088 19.2491 10.5833V13.4166C19.2491 14.199 18.6149 14.8333 17.8325 14.8333C17.0501 14.8333 16.4158 14.199 16.4158 13.4166V10.5833C16.4158 9.80088 17.0501 9.16662 17.8325 9.16662Z" fill="black"/>
</svg>
