<svg width="30" height="30" viewBox="0 0 30 30" fill="none" xmlns="http://www.w3.org/2000/svg">
<path fill-rule="evenodd" clip-rule="evenodd" d="M5.0835 0.833344H22.0835C24.3469 0.833344 26.197 2.60265 26.3263 4.83362L26.3335 5.08334L26.3348 9.57563C27.9848 10.1594 29.1668 11.7333 29.1668 13.5833V16.4167C29.1668 18.2667 27.9848 19.8406 26.3348 20.4244L26.3335 24.9167C26.3335 27.1801 24.5642 29.0302 22.3332 29.1595L22.0835 29.1667H5.0835C2.82011 29.1667 0.969977 27.3974 0.840711 25.1664L0.833496 24.9167V5.08334C0.833496 2.81996 2.6028 0.969824 4.83378 0.840558L5.0835 0.833344H22.0835H5.0835ZM22.0835 3.66668H5.0835C4.35698 3.66668 3.75819 4.21357 3.67636 4.91813L3.66683 5.08334V24.9167C3.66683 25.6432 4.21372 26.242 4.91828 26.3238L5.0835 26.3333H22.0835C22.81 26.3333 23.4088 25.7865 23.4906 25.0819L23.5002 24.9167V20.6667H22.0835C19.7363 20.6667 17.8335 18.7639 17.8335 16.4167V13.5833C17.8335 11.2361 19.7363 9.33334 22.0835 9.33334H23.5002V5.08334C23.5002 4.35683 22.9533 3.75804 22.2487 3.67621L22.0835 3.66668ZM24.9168 12.1667H22.0835C21.3011 12.1667 20.6668 12.8009 20.6668 13.5833V16.4167C20.6668 17.1991 21.3011 17.8333 22.0835 17.8333H24.9168C25.6992 17.8333 26.3335 17.1991 26.3335 16.4167V13.5833C26.3335 12.8009 25.6992 12.1667 24.9168 12.1667Z" fill="black"/>
</svg>
