<svg width="14" height="14" viewBox="0 0 14 14" fill="none" xmlns="http://www.w3.org/2000/svg">
<path fill-rule="evenodd" clip-rule="evenodd" d="M0.99998 0.333332H6.33331C7.20415 0.333332 7.94499 0.889899 8.21953 1.66672L11.6666 1.66667C12.7318 1.66667 13.6024 2.49928 13.6633 3.54915L13.6666 3.66667V9C13.6666 10.0651 12.834 10.9358 11.7842 10.9966L11.6666 11H8.99998C8.12939 11 7.38872 10.4437 7.114 9.66727L1.66665 9.66667V13C1.66665 13.3682 1.36817 13.6667 0.99998 13.6667C0.63179 13.6667 0.333313 13.3682 0.333313 13V0.999999C0.333313 0.631809 0.63179 0.333332 0.99998 0.333332ZM8.33331 3V9C8.33331 9.34189 8.59067 9.62367 8.92223 9.66218L8.99998 9.66667H11.6666C12.0085 9.66667 12.2903 9.40931 12.3288 9.07775L12.3333 9V3.66667C12.3333 3.32477 12.076 3.04299 11.7444 3.00448L11.6666 3H8.33331ZM6.33331 1.66667H1.66665V8.33333H6.99998V2.33333C6.99998 1.99144 6.74262 1.70966 6.41106 1.67115L6.33331 1.66667Z" fill="black" fill-opacity="0.5"/>
</svg>
