<svg width="12" height="14" viewBox="0 0 12 14" fill="none" xmlns="http://www.w3.org/2000/svg">
<path fill-rule="evenodd" clip-rule="evenodd" d="M8 0.333313C10.2091 0.333313 12 2.12417 12 4.33331C12 6.49224 10.2896 8.25169 8.14996 8.33055L8 8.33331H4.66667V9.66665H7.33333C7.70152 9.66665 8 9.96512 8 10.3333C8 10.7015 7.70152 11 7.33333 11H4.66667V13C4.66667 13.3682 4.36819 13.6666 4 13.6666C3.63181 13.6666 3.33333 13.3682 3.33333 13V11H0.666667C0.298477 11 0 10.7015 0 10.3333C0 9.96512 0.298477 9.66665 0.666667 9.66665H3.33333V8.33331H0.666667C0.298477 8.33331 0 8.03484 0 7.66665C0 7.32476 0.25736 7.04298 0.588919 7.00447L0.666667 6.99998H3.33333V0.99998C3.33333 0.63179 3.63181 0.333313 4 0.333313H8ZM8.00002 1.66663H4.66668V6.99996H8.00002C9.47278 6.99996 10.6667 5.80605 10.6667 4.33329C10.6667 2.90516 9.54404 1.73924 8.13311 1.66989L8.00002 1.66663Z" fill="black" fill-opacity="0.5"/>
</svg>
