<svg width="14" height="14" viewBox="0 0 14 14" fill="none" xmlns="http://www.w3.org/2000/svg">
<path fill-rule="evenodd" clip-rule="evenodd" d="M10.3333 0.333344C10.7015 0.333344 11 0.63182 11 1.00001V1.66668H11.6666C12.7712 1.66668 13.6666 2.56211 13.6666 3.66668V11.6667C13.6666 12.7712 12.7712 13.6667 11.6666 13.6667H2.33331C1.22874 13.6667 0.333313 12.7712 0.333313 11.6667V3.66668C0.333313 2.56211 1.22874 1.66668 2.33331 1.66668H2.99998V1.00001C2.99998 0.63182 3.29846 0.333344 3.66665 0.333344C4.03484 0.333344 4.33331 0.63182 4.33331 1.00001V1.66668H9.66665V1.00001C9.66665 0.63182 9.96512 0.333344 10.3333 0.333344ZM12.3333 7.00001H1.66665V11.6667C1.66665 12.0349 1.96513 12.3333 2.33332 12.3333H11.6666C12.0348 12.3333 12.3333 12.0349 12.3333 11.6667V7.00001ZM10.3333 8.33334C10.7015 8.33334 11 8.63182 11 9.00001V10.3333C11 10.7015 10.7015 11 10.3333 11H8.99998C8.63179 11 8.33331 10.7015 8.33331 10.3333V9.00001C8.33331 8.63182 8.63179 8.33334 8.99998 8.33334H10.3333ZM2.99998 3.00001H2.33332C1.96513 3.00001 1.66665 3.29849 1.66665 3.66668V5.66668H12.3333V3.66668C12.3333 3.29849 12.0348 3.00001 11.6666 3.00001H11V3.66668C11 4.03487 10.7015 4.33335 10.3333 4.33335C9.96513 4.33335 9.66665 4.03487 9.66665 3.66668V3.00001H4.33332V3.66668C4.33332 4.03487 4.03484 4.33335 3.66665 4.33335C3.29846 4.33335 2.99998 4.03487 2.99998 3.66668V3.00001Z" fill="black" fill-opacity="0.5"/>
</svg>
