<svg width="14" height="10" viewBox="0 0 14 10" fill="none" xmlns="http://www.w3.org/2000/svg">
<path fill-rule="evenodd" clip-rule="evenodd" d="M11 0.2C12.3255 0.2 13.4 1.27452 13.4 2.6V7.4C13.4 8.72548 12.3255 9.8 11 9.8H2.99998C1.67449 9.8 0.599976 8.72548 0.599976 7.4V2.6C0.599976 1.27452 1.67449 0.2 2.99998 0.2H11ZM11.8 2.84L7.52678 6.40206C7.25029 6.64399 6.84882 6.66415 6.5515 6.46254L6.47317 6.40206L2.19998 2.8408V7.4C2.19998 7.84183 2.55815 8.2 2.99998 8.2H11C11.4418 8.2 11.8 7.84183 11.8 7.4V2.84ZM10.5456 1.8H3.45357L6.99997 4.73699L10.5456 1.8Z" fill="black" fill-opacity="0.5"/>
</svg>
