<svg width="14" height="14" viewBox="0 0 14 14" fill="none" xmlns="http://www.w3.org/2000/svg">
<path fill-rule="evenodd" clip-rule="evenodd" d="M11.6666 0.333332C12.7712 0.333332 13.6666 1.22876 13.6666 2.33333V11.6667C13.6666 12.7712 12.7712 13.6667 11.6666 13.6667H2.33331C1.22874 13.6667 0.333313 12.7712 0.333313 11.6667V2.33333C0.333313 1.22876 1.22874 0.333332 2.33331 0.333332H11.6666ZM11.6666 1.66667H2.33331C1.96512 1.66667 1.66665 1.96514 1.66665 2.33333V11.6667C1.66665 12.0349 1.96512 12.3333 2.33331 12.3333H11.6666C12.0348 12.3333 12.3333 12.0349 12.3333 11.6667V2.33333C12.3333 1.96514 12.0348 1.66667 11.6666 1.66667ZM4.33331 8.33333C4.7015 8.33333 4.99998 8.63181 4.99998 9V10.3333C4.99998 10.7015 4.7015 11 4.33331 11C3.96512 11 3.66665 10.7015 3.66665 10.3333V9C3.66665 8.63181 3.96512 8.33333 4.33331 8.33333ZM6.99998 3C7.36817 3 7.66665 3.29848 7.66665 3.66667V10.3333C7.66665 10.7015 7.36817 11 6.99998 11C6.63179 11 6.33331 10.7015 6.33331 10.3333V3.66667C6.33331 3.29848 6.63179 3 6.99998 3ZM9.66665 5.66667C10.0348 5.66667 10.3333 5.96514 10.3333 6.33333V10.3333C10.3333 10.7015 10.0348 11 9.66665 11C9.29846 11 8.99998 10.7015 8.99998 10.3333V6.33333C8.99998 5.96514 9.29846 5.66667 9.66665 5.66667Z" fill="black" fill-opacity="0.5"/>
</svg>
