<svg width="14" height="14" viewBox="0 0 14 14" fill="none" xmlns="http://www.w3.org/2000/svg">
<path fill-rule="evenodd" clip-rule="evenodd" d="M6.26503 0.334663L7.68003 0.334595C7.72281 0.33658 7.76039 0.341474 7.81314 0.352962C8.20011 0.437223 8.34723 0.576171 8.70736 1.42716L8.76606 1.56754L8.99238 2.12832L9.01099 2.13597L9.3026 2.00397C9.93769 1.71997 10.2651 1.60035 10.4852 1.56697L10.5308 1.56111L10.6139 1.55663C10.8121 1.55663 11.014 1.62683 11.1685 1.74907L11.2416 1.81444L12.1462 2.7153L12.2091 2.78177C12.4932 3.09479 12.5198 3.3167 12.2055 4.12549L12.1009 4.38641L11.8543 4.96972L11.859 4.98111L12.4238 5.192L12.696 5.2996C13.3993 5.58715 13.5438 5.7404 13.6378 6.09243C13.6568 6.16341 13.6635 6.21177 13.6657 6.27179L13.6666 6.33698V7.6088C13.6666 7.69921 13.6635 7.75027 13.6413 7.83962C13.5477 8.21543 13.4088 8.35853 12.5636 8.71554L12.4242 8.77376L11.8673 8.99849L11.8634 9.00787L12.0648 9.4478C12.5656 10.5608 12.5831 10.8048 12.2539 11.1713L12.2128 11.216L11.2842 12.1439C11.1179 12.3119 10.8811 12.4045 10.6519 12.4045C10.4573 12.4045 10.1516 12.3119 9.63059 12.103L9.35164 11.9887L9.03389 11.8544L9.01572 11.8619L8.85154 12.3022C8.44957 13.3612 8.31185 13.5332 7.89891 13.6397C7.83789 13.6555 7.79425 13.6622 7.74469 13.6649L7.66301 13.6667H6.3904C6.31097 13.6667 6.26615 13.6643 6.18726 13.6472C5.80045 13.5633 5.65274 13.4241 5.2919 12.5726L5.23308 12.4321L5.00638 11.871L4.98894 11.8638L4.56541 12.0542C3.88798 12.3524 3.59451 12.4432 3.38535 12.4432C3.18948 12.4432 2.99003 12.3744 2.83137 12.251L2.75564 12.1848L1.85227 11.2826L1.74911 11.1701C1.50137 10.8786 1.48919 10.6526 1.79327 9.87459L1.95173 9.48514L2.14516 9.03044L2.14113 9.02066L1.7032 8.85748C0.824703 8.52411 0.553966 8.37057 0.425312 8.09024L0.390512 8.00203L0.361443 7.90437C0.344995 7.84194 0.337975 7.79721 0.335123 7.74631L0.333313 7.66236V6.38978C0.333313 6.29866 0.336472 6.24715 0.359161 6.15703C0.443754 5.82104 0.563821 5.67182 1.19629 5.38841L1.45842 5.27521L2.13153 5.00301L2.13614 4.9918L1.88448 4.43652C1.4692 3.49327 1.43481 3.20608 1.69682 2.88531L1.73266 2.84322L1.81756 2.75325L2.71742 1.85542C2.88229 1.68964 3.11811 1.59618 3.34764 1.59618C3.51182 1.59618 3.75287 1.66114 4.13868 1.80727L4.52682 1.96113L4.96684 2.14555L4.98487 2.13804L5.1503 1.69483C5.55602 0.628173 5.70084 0.449793 6.12879 0.353992C6.18277 0.341908 6.22128 0.336755 6.26503 0.334663ZM7.34865 1.66667H6.60536L6.50056 1.91235C6.46076 2.01003 6.41587 2.12412 6.36517 2.25654L6.13286 2.87796C6.07714 3.02508 5.97156 3.14693 5.83581 3.22315L5.76552 3.25736L5.21945 3.4846C5.08158 3.54197 4.9293 3.55107 4.78691 3.512L4.70286 3.48278L4.05681 3.21046L3.70785 3.0713L3.4733 2.98473L2.94649 3.51034L3.00849 3.66695C3.03272 3.72593 3.06061 3.79188 3.0924 3.86535L3.19978 4.10887L3.46909 4.6976C3.53359 4.8378 3.54708 4.99509 3.509 5.14274L3.47996 5.22995L3.25666 5.77257C3.19755 5.91623 3.09048 6.03395 2.95493 6.10655L2.88487 6.139L2.15982 6.43045L1.79737 6.58581L1.66665 6.64635V7.39979L1.82307 7.4676C1.88229 7.49237 1.94879 7.51937 2.02316 7.54884L2.2705 7.64482L2.87153 7.86802C3.02305 7.92264 3.14878 8.0299 3.22677 8.16882L3.26168 8.24082L3.485 8.78184C3.54235 8.92077 3.55075 9.07412 3.51042 9.21714L3.48038 9.3015L3.22119 9.90972L3.05864 10.3109L2.97946 10.524L3.5063 11.0502L3.66317 10.9881C3.72095 10.9646 3.78428 10.9382 3.85331 10.9087L4.33721 10.6954L4.68618 10.5347C4.83221 10.4649 4.99773 10.4511 5.15195 10.4939L5.22798 10.52L5.77727 10.7468C5.92286 10.8069 6.04166 10.9162 6.1138 11.0544L6.1459 11.1258L6.28259 11.4707L6.47712 11.9438L6.5897 12.2023L6.65075 12.3333H7.39623L7.5027 12.0824L7.64136 11.7283L7.86714 11.1229C7.92282 10.9745 8.0292 10.8516 8.16612 10.7751L8.23703 10.7408L8.78398 10.5151C8.92025 10.4589 9.07049 10.4497 9.21129 10.4875L9.29446 10.5159L9.80951 10.7343L10.1854 10.8874L10.3911 10.9667L10.5269 11.0159L11.0543 10.4894L10.9527 10.2385L10.8002 9.89085L10.5304 9.3026C10.4656 9.16215 10.4521 9.00452 10.4904 8.8566L10.5195 8.76923L10.7424 8.22896C10.8012 8.08641 10.9073 7.96942 11.0416 7.89681L11.111 7.86429L11.7251 7.61744L12.0385 7.48603L12.1247 7.44854L12.3333 7.35312V6.60042L12.1242 6.51115L11.841 6.39907L11.126 6.13293C10.9749 6.07792 10.8496 5.97047 10.772 5.83155L10.7372 5.75956L10.5143 5.21635C10.4574 5.07776 10.4492 4.92493 10.4894 4.78237L10.5193 4.69826L10.7263 4.21434C10.7802 4.08636 10.8271 3.97288 10.8676 3.87257L10.9402 3.68915L11.0193 3.47481L10.4922 2.94988L10.3353 3.01199C10.2484 3.04739 10.149 3.0894 10.0361 3.13846L9.91879 3.18989L9.30355 3.46893C9.16359 3.53307 9.00668 3.54641 8.85938 3.50842L8.77237 3.47947L8.22344 3.25383C8.07974 3.19476 7.96198 3.08773 7.88933 2.95219L7.85685 2.88214L7.66276 2.39655L7.52211 2.05635L7.44421 1.87542L7.34865 1.66667ZM7.00029 4.33334C8.47106 4.33334 9.66665 5.52868 9.66665 6.99943C9.66665 8.47026 8.47097 9.66667 7.00029 9.66667C5.5292 9.66667 4.33331 8.47047 4.33331 6.99943C4.33331 5.52847 5.52911 4.33334 7.00029 4.33334ZM7.00029 5.66667C6.26532 5.66667 5.66665 6.26502 5.66665 6.99943C5.66665 7.73417 6.26566 8.33334 7.00029 8.33334C7.73441 8.33334 8.33331 7.73406 8.33331 6.99943C8.33331 6.26512 7.73474 5.66667 7.00029 5.66667Z" fill="black" fill-opacity="0.5"/>
</svg>
