<svg width="14" height="14" viewBox="0 0 14 14" fill="none" xmlns="http://www.w3.org/2000/svg">
<path fill-rule="evenodd" clip-rule="evenodd" d="M3.66665 9.66666H10.3333C12.1743 9.66666 13.6666 11.159 13.6666 13C13.6666 13.3682 13.3682 13.6667 13 13.6667C12.6581 13.6667 12.3763 13.4093 12.3378 13.0777L12.3299 12.8825C12.2713 11.8715 11.4618 11.062 10.4508 11.0034L10.3333 11H3.66665C2.56208 11 1.66665 11.8954 1.66665 13C1.66665 13.3682 1.36817 13.6667 0.99998 13.6667C0.63179 13.6667 0.333313 13.3682 0.333313 13C0.333313 11.2075 1.74818 9.74545 3.52205 9.66974L3.66665 9.66666H10.3333H3.66665ZM6.99998 0.333328C9.20912 0.333328 11 2.12419 11 4.33333C11 6.54247 9.20912 8.33333 6.99998 8.33333C4.79084 8.33333 2.99998 6.54247 2.99998 4.33333C2.99998 2.12419 4.79084 0.333328 6.99998 0.333328ZM6.99998 1.66666C5.52722 1.66666 4.33331 2.86057 4.33331 4.33333C4.33331 5.80609 5.52722 6.99999 6.99998 6.99999C8.47274 6.99999 9.66665 5.80609 9.66665 4.33333C9.66665 2.86057 8.47274 1.66666 6.99998 1.66666Z" fill="black"/>
</svg>
