<svg width="14" height="12" viewBox="0 0 14 12" fill="none" xmlns="http://www.w3.org/2000/svg">
<path fill-rule="evenodd" clip-rule="evenodd" d="M11.6666 0.666664C12.7712 0.666664 13.6666 1.56209 13.6666 2.66666V4C13.6666 4.36819 13.3682 4.66666 13 4.66666C12.2636 4.66666 11.6666 5.26362 11.6666 6C11.6666 6.70291 12.2106 7.27877 12.9005 7.32967L13.0777 7.33782C13.4093 7.37633 13.6666 7.65811 13.6666 8V9.33333C13.6666 10.4379 12.7712 11.3333 11.6666 11.3333H2.33331C1.22874 11.3333 0.333313 10.4379 0.333313 9.33333V8C0.333313 7.65811 0.590673 7.37633 0.922232 7.33782L1.09949 7.32967C1.78939 7.27877 2.33331 6.70291 2.33331 6C2.33331 5.26362 1.73636 4.66666 0.99998 4.66666C0.63179 4.66666 0.333313 4.36819 0.333313 4V2.66666C0.333313 1.56209 1.22874 0.666664 2.33331 0.666664H11.6666ZM7.66665 2H2.33331C1.96512 2 1.66665 2.29847 1.66665 2.66666V3.41734C2.8168 3.71337 3.66665 4.75744 3.66665 6C3.66665 7.24256 2.8168 8.28662 1.66665 8.58265V9.33333C1.66665 9.70152 1.96512 10 2.33331 10H7.66665V9.33333C7.66665 8.96514 7.96512 8.66666 8.33331 8.66666C8.7015 8.66666 8.99998 8.96514 8.99998 9.33333V10H11.6666C12.0348 10 12.3333 9.70152 12.3333 9.33333V8.58265C11.1832 8.28662 10.3333 7.24256 10.3333 6C10.3333 4.80346 11.1214 3.79098 12.2068 3.45328L12.3333 3.41734V2.66666C12.3333 2.29847 12.0348 2 11.6666 2H8.99998V2.66666C8.99998 3.03485 8.7015 3.33333 8.33331 3.33333C7.96512 3.33333 7.66665 3.03485 7.66665 2.66666V2ZM8.33331 4.66666C8.7015 4.66666 8.99998 4.96514 8.99998 5.33333V6.66666C8.99998 7.03485 8.7015 7.33333 8.33331 7.33333C7.96512 7.33333 7.66665 7.03485 7.66665 6.66666V5.33333C7.66665 4.96514 7.96512 4.66666 8.33331 4.66666Z" fill="black" fill-opacity="0.5"/>
</svg>
