<svg width="14" height="12" viewBox="0 0 14 12" fill="none" xmlns="http://www.w3.org/2000/svg">
<path fill-rule="evenodd" clip-rule="evenodd" d="M5.33331 0.998393L6.99998 1.68739L8.66665 0.998393C9.73655 0.556098 10.9301 0.556098 12 0.998393L13.2476 1.51415C13.5007 1.61878 13.6666 1.87213 13.6666 2.15386V10.3157C13.6666 10.6962 13.3682 11.0047 13 11.0047C12.9152 11.0047 12.8311 10.9879 12.7524 10.9554L12 10.6443C10.9301 10.202 9.73655 10.202 8.66665 10.6443L6.99998 11.3333L5.33331 10.6443C4.26341 10.202 3.06988 10.202 1.99998 10.6443L1.24757 10.9554C0.905718 11.0967 0.517737 10.9249 0.380995 10.5716C0.349496 10.4902 0.333313 10.4033 0.333313 10.3157V2.15386C0.333313 1.87213 0.49928 1.61878 0.752386 1.51415L1.99998 0.998393C3.06988 0.556098 4.26341 0.556098 5.33331 0.998393ZM2.50937 2.23059L1.66665 2.57897V9.34274C3.01693 8.83601 4.505 8.85915 5.8427 9.41215L6.33331 9.61467V2.85467L4.82393 2.23059C4.08023 1.92314 3.25306 1.92314 2.50937 2.23059ZM9.17603 2.23059L7.66665 2.854V9.61467L8.15726 9.41215C9.49496 8.85915 10.983 8.83601 12.3333 9.34274V2.57897L11.4906 2.23059C10.7469 1.92314 9.91973 1.92314 9.17603 2.23059Z" fill="black" fill-opacity="0.5"/>
</svg>
