<svg width="14" height="8" viewBox="0 0 14 8" fill="none" xmlns="http://www.w3.org/2000/svg">
<path d="M1.40861 0.139803L1.47141 0.195262L5.66668 4.39L7.86194 2.19526C8.10226 1.95494 8.48042 1.93645 8.74194 2.1398L8.80475 2.19526L11.6667 5.05667L12.5286 4.19526C12.9303 3.79355 13.6048 4.04822 13.6627 4.59091L13.6667 4.66667L13.6655 7.37292L13.6595 7.4313L13.6429 7.51056L13.6267 7.56111L13.6042 7.61548L13.5693 7.68047L13.5247 7.74468L13.4714 7.80476C13.4478 7.82833 13.4229 7.84979 13.3969 7.86911L13.3227 7.91689L13.2476 7.95252L13.1773 7.9761L13.099 7.99265L13.0595 7.99736L13 8H10.3333C9.76523 8 9.46839 7.34299 9.81119 6.91832L9.86194 6.86193L10.7233 6L8.33334 3.61L6.13808 5.80474C5.89776 6.04506 5.51961 6.06355 5.25808 5.8602L5.19527 5.80474L0.528606 1.13807C0.268256 0.877722 0.268256 0.455612 0.528606 0.195262C0.768928 -0.0450605 1.14708 -0.0635469 1.40861 0.139803Z" fill="#ED0F48"/>
</svg>
