<svg width="14" height="8" viewBox="0 0 14 8" fill="none" xmlns="http://www.w3.org/2000/svg">
<path d="M1.40861 7.8602L1.47141 7.80474L5.66668 3.61L7.86194 5.80474C8.10226 6.04506 8.48042 6.06355 8.74194 5.8602L8.80475 5.80474L11.6667 2.94333L12.5286 3.80474C12.9303 4.20645 13.6048 3.95178 13.6627 3.40909L13.6667 3.33333L13.6655 0.627077L13.6595 0.5687L13.6429 0.48944L13.6267 0.438889L13.6042 0.384519L13.5693 0.319528L13.5247 0.255318L13.4714 0.195239C13.4478 0.171666 13.4229 0.150209 13.3969 0.13089L13.3227 0.0831141L13.2476 0.0474837L13.1773 0.0238968L13.099 0.0073452L13.0595 0.00264427L13 0H10.3333C9.76523 0 9.46839 0.657009 9.81119 1.08168L9.86194 1.13807L10.7233 2L8.33334 4.39L6.13808 2.19526C5.89776 1.95494 5.51961 1.93645 5.25808 2.1398L5.19527 2.19526L0.528606 6.86193C0.268256 7.12228 0.268256 7.54439 0.528606 7.80474C0.768928 8.04506 1.14708 8.06355 1.40861 7.8602Z" fill="#52AD5B"/>
</svg>
