<svg xmlns="http://www.w3.org/2000/svg" width="11" height="17" viewBox="0 0 11 17"><path fill="#008ed6" d="M5.432 7.267l4.087.013-5.564 8.037 1.129-6.522-4.087-.014L6.56 1.339zM6.48.342a.833.833 0 00-.432.167 1.003 1.003 0 00-.261.253L.184 8.178A.995.995 0 00.1 9.216c.17.334.513.546.89.55l2.886.02-.908 5.347a.998.998 0 00.987 1.183c.314 0 .572-.146.766-.412l5.61-8.036a.995.995 0 00.085-1.038 1.006 1.006 0 00-.89-.55L6.64 6.276l.898-4.702A1.001 1.001 0 006.597.34H6.56a1.05 1.05 0 00-.08.003z"/></svg>