<svg xmlns="http://www.w3.org/2000/svg" width="16" height="15" viewBox="0 0 16 15"><path fill="#008ed6" d="M11.955 15.154a.5.5 0 01-.262-.926 7.011 7.011 0 002.148-2.058l-.499-.288a.5.5 0 11.5-.866l.496.286c.373-.78.602-1.632.665-2.521h-.55a.5.5 0 110-1h.551a6.938 6.938 0 00-.69-2.57l-.471.273a.5.5 0 01-.5-.866l.469-.271a7.048 7.048 0 00-1.858-1.857l-.27.468a.5.5 0 01-.866-.5l.271-.47A6.939 6.939 0 008.52 1.3v.626a.5.5 0 11-1 0v-.624a6.953 6.953 0 00-2.515.67l.28.486a.5.5 0 11-.866.5l-.282-.488a7.048 7.048 0 00-1.875 1.86l.498.287a.5.5 0 01-.5.866l-.503-.29a6.938 6.938 0 00-.698 2.572h.557a.5.5 0 110 1h-.558c.062.901.295 1.765.676 2.555l.526-.304a.5.5 0 11.5.866l-.527.304a7.013 7.013 0 002.088 2.012.5.5 0 11-.531.847A7.95 7.95 0 01.04 8.273c0-4.406 3.584-7.99 7.99-7.99 4.406 0 7.99 3.584 7.99 7.99a7.944 7.944 0 01-3.804 6.807.498.498 0 01-.262.074zm-3.94-7.87c.18 0 .348.047.494.13l2.711-1.566a.5.5 0 11.5.866L9.013 8.277v.004a.998.998 0 11-.997-.997z"/></svg>